<svg width="13" height="13" viewBox="0 0 13 13" fill="none" xmlns="http://www.w3.org/2000/svg">
<path d="M11.329 3.98956V3.99094V8.18094C11.329 8.9915 11.0893 9.57851 10.7054 9.96238C10.3216 10.3463 9.73455 10.5859 8.92398 10.5859H4.73898C3.92843 10.5859 3.34157 10.3463 2.95776 9.96198C2.57388 9.57762 2.33398 8.98936 2.33398 8.17594V3.99094C2.33398 3.18037 2.57366 2.59337 2.95754 2.20949C3.34141 1.82562 3.92842 1.58594 4.73898 1.58594H8.92898C9.73964 1.58594 10.3265 1.82566 10.7096 2.20927C11.0926 2.59278 11.3312 3.17932 11.329 3.98956ZM7.70898 8.08594V6.96094H8.83398C9.31513 6.96094 9.70898 6.56708 9.70898 6.08594C9.70898 5.60479 9.31513 5.21094 8.83398 5.21094H7.70898V4.08594C7.70898 3.6048 7.31513 3.21094 6.83398 3.21094C6.35284 3.21094 5.95898 3.6048 5.95898 4.08594V5.21094H4.83398C4.35284 5.21094 3.95898 5.60479 3.95898 6.08594C3.95898 6.56708 4.35284 6.96094 4.83398 6.96094H5.95898V8.08594C5.95898 8.56708 6.35284 8.96094 6.83398 8.96094C7.31513 8.96094 7.70898 8.56708 7.70898 8.08594Z" fill="#73A8A1" stroke="#73A8A1"/>
</svg>
