<?xml version="1.0" encoding="UTF-8" standalone="no" ?>
<!DOCTYPE svg PUBLIC "-//W3C//DTD SVG 1.1//EN" "http://www.w3.org/Graphics/SVG/1.1/DTD/svg11.dtd">
<svg xmlns="http://www.w3.org/2000/svg" xmlns:xlink="http://www.w3.org/1999/xlink" version="1.1" width="1080" height="1080" viewBox="0 0 1080 1080" xml:space="preserve">
<desc>Created with Fabric.js 5.2.4</desc>
<defs>
</defs>
<g transform="matrix(1 0 0 1 540 540)" id="2f5a8909-fd9d-4e4e-b447-ebff9c9b4c12"  >
<rect style="stroke: none; stroke-width: 1; stroke-dasharray: none; stroke-linecap: butt; stroke-dashoffset: 0; stroke-linejoin: miter; stroke-miterlimit: 4; fill: rgb(255,255,255); fill-rule: nonzero; opacity: 1; visibility: hidden;" vector-effect="non-scaling-stroke"  x="-540" y="-540" rx="0" ry="0" width="1080" height="1080" />
</g>
<g transform="matrix(1 0 0 1 540 540)" id="865d0feb-5df4-4b24-b257-f92b9b511ba8"  >
</g>
<g transform="matrix(1 0 0 1 540 540)" id="b4389219-39df-4d00-81c8-940b5b267c44"  >
<path style="stroke: rgb(0,0,0); stroke-width: 0; stroke-dasharray: none; stroke-linecap: butt; stroke-dashoffset: 0; stroke-linejoin: miter; stroke-miterlimit: 4; fill: rgb(58,104,96); fill-rule: nonzero; opacity: 1;" vector-effect="non-scaling-stroke"  transform=" translate(-8, -9)" d="M 15.3281 12.7456 C 14.8945 11.9987 14.25 9.8854 14.25 7.12524 C 14.25 5.46764 13.5915 3.87793 12.4194 2.70583 C 11.2473 1.53372 9.65761 0.875244 8.00001 0.875244 C 6.34241 0.875244 4.7527 1.53372 3.58059 2.70583 C 2.40849 3.87793 1.75001 5.46764 1.75001 7.12524 C 1.75001 9.88618 1.1047 11.9987 0.671104 12.7456 C 0.560378 12.9354 0.501677 13.1512 0.500923 13.371 C 0.500168 13.5908 0.557386 13.8069 0.666806 13.9975 C 0.776226 14.1881 0.933978 14.3465 1.12415 14.4568 C 1.31433 14.567 1.53021 14.6251 1.75001 14.6252 L 4.93829 14.6252 C 5.08249 15.3308 5.46597 15.965 6.02386 16.4204 C 6.58176 16.8758 7.27983 17.1245 8.00001 17.1245 C 8.72019 17.1245 9.41826 16.8758 9.97616 16.4204 C 10.5341 15.965 10.9175 15.3308 11.0617 14.6252 L 14.25 14.6252 C 14.4697 14.6249 14.6855 14.5667 14.8756 14.4565 C 15.0657 14.3462 15.2233 14.1878 15.3326 13.9972 C 15.442 13.8066 15.4991 13.5905 15.4983 13.3708 C 15.4975 13.151 15.4388 12.9354 15.3281 12.7456 Z M 8.00001 15.8752 C 7.61237 15.8751 7.23429 15.7549 6.91782 15.531 C 6.60135 15.3072 6.36204 14.9907 6.23282 14.6252 L 9.7672 14.6252 C 9.63798 14.9907 9.39867 15.3072 9.0822 15.531 C 8.76573 15.7549 8.38765 15.8751 8.00001 15.8752 Z" stroke-linecap="round" />
</g>
<g transform="matrix(NaN NaN NaN NaN 0 0)"  >
<g style=""   >
</g>
</g>
</svg>