<svg width="16" height="18" viewBox="0 0 16 18" fill="none" xmlns="http://www.w3.org/2000/svg">
<path d="M15.3281 12.7456C14.8945 11.9987 14.25 9.8854 14.25 7.12524C14.25 5.46764 13.5915 3.87793 12.4194 2.70583C11.2473 1.53372 9.65761 0.875244 8.00001 0.875244C6.34241 0.875244 4.7527 1.53372 3.58059 2.70583C2.40849 3.87793 1.75001 5.46764 1.75001 7.12524C1.75001 9.88618 1.1047 11.9987 0.671104 12.7456C0.560378 12.9354 0.501677 13.1512 0.500923 13.371C0.500168 13.5908 0.557386 13.8069 0.666806 13.9975C0.776226 14.1881 0.933978 14.3465 1.12415 14.4568C1.31433 14.567 1.53021 14.6251 1.75001 14.6252H4.93829C5.08249 15.3308 5.46597 15.965 6.02386 16.4204C6.58176 16.8758 7.27983 17.1245 8.00001 17.1245C8.72019 17.1245 9.41826 16.8758 9.97616 16.4204C10.5341 15.965 10.9175 15.3308 11.0617 14.6252H14.25C14.4697 14.6249 14.6855 14.5667 14.8756 14.4565C15.0657 14.3462 15.2233 14.1878 15.3326 13.9972C15.442 13.8066 15.4991 13.5905 15.4983 13.3708C15.4975 13.151 15.4388 12.9354 15.3281 12.7456ZM8.00001 15.8752C7.61237 15.8751 7.23429 15.7549 6.91782 15.531C6.60135 15.3072 6.36204 14.9907 6.23282 14.6252H9.7672C9.63798 14.9907 9.39867 15.3072 9.0822 15.531C8.76573 15.7549 8.38765 15.8751 8.00001 15.8752Z" fill="#F9FAFC"/>
</svg>
