<svg width="13" height="13" viewBox="0 0 13 13" fill="none" xmlns="http://www.w3.org/2000/svg">
<path d="M5.85801 7.56094L4.93301 8.48594C4.73801 8.68094 4.42801 8.68094 4.22801 8.49094C4.17301 8.43594 4.11801 8.38594 4.06301 8.33094C3.54801 7.81094 3.08301 7.26594 2.66801 6.69594C2.25801 6.12594 1.92801 5.55594 1.68801 4.99094C1.45301 4.42094 1.33301 3.87594 1.33301 3.35594C1.33301 3.01594 1.39301 2.69094 1.51301 2.39094C1.63301 2.08594 1.82301 1.80594 2.08801 1.55594C2.40801 1.24094 2.75801 1.08594 3.12801 1.08594C3.26801 1.08594 3.40801 1.11594 3.53301 1.17594C3.66301 1.23594 3.77801 1.32594 3.86801 1.45594L5.02801 3.09094C5.11801 3.21594 5.18301 3.33094 5.22801 3.44094C5.27301 3.54594 5.29801 3.65094 5.29801 3.74594C5.29801 3.86594 5.26301 3.98594 5.19301 4.10094C5.12801 4.21594 5.03301 4.33594 4.91301 4.45594L4.53301 4.85094C4.47801 4.90594 4.45301 4.97094 4.45301 5.05094C4.45301 5.09094 4.45801 5.12594 4.46801 5.16594C4.48301 5.20594 4.49801 5.23594 4.50801 5.26594C4.59801 5.43094 4.75301 5.64594 4.97301 5.90594C5.19801 6.16594 5.43801 6.43094 5.69801 6.69594C5.74801 6.74594 5.80301 6.79594 5.85301 6.84594C6.05301 7.04094 6.05801 7.36094 5.85801 7.56094Z" fill="#AEAEAE"/>
<path d="M11.3178 9.25438C11.3178 9.39438 11.2928 9.53938 11.2428 9.67938C11.2278 9.71938 11.2128 9.75938 11.1928 9.79938C11.1078 9.97938 10.9978 10.1494 10.8528 10.3094C10.6078 10.5794 10.3378 10.7744 10.0328 10.8994C10.0278 10.8994 10.0228 10.9044 10.0178 10.9044C9.72281 11.0244 9.40281 11.0894 9.05781 11.0894C8.54781 11.0894 8.00281 10.9694 7.42781 10.7244C6.85281 10.4794 6.27781 10.1494 5.70781 9.73438C5.51281 9.58938 5.31781 9.44438 5.13281 9.28938L6.76781 7.65438C6.90781 7.75938 7.03281 7.83937 7.13781 7.89437C7.16281 7.90437 7.19281 7.91937 7.22781 7.93437C7.26781 7.94937 7.30781 7.95437 7.35281 7.95437C7.43781 7.95437 7.50281 7.92438 7.55781 7.86938L7.93781 7.49438C8.06281 7.36938 8.18281 7.27438 8.29781 7.21438C8.41281 7.14438 8.52781 7.10938 8.65281 7.10938C8.74781 7.10938 8.84781 7.12938 8.95781 7.17438C9.06781 7.21938 9.18281 7.28438 9.30781 7.36938L10.9628 8.54438C11.0928 8.63438 11.1828 8.73937 11.2378 8.86437C11.2878 8.98937 11.3178 9.11438 11.3178 9.25438Z" fill="#AEAEAE"/>
</svg>
