<svg width="31" height="31" viewBox="0 0 31 31" fill="none" xmlns="http://www.w3.org/2000/svg">
<path d="M3.52734 3.69219C3.52734 2.03922 4.86734 0.699219 6.52031 0.699219H18.4922L27.4711 9.67813V27.6359C27.4711 29.2889 26.1311 30.6289 24.4781 30.6289H6.52032C4.86735 30.6289 3.52734 29.2889 3.52734 27.6359V3.69219Z" fill="#155EEF"/>
<path opacity="0.3" d="M18.4922 0.699219L27.4711 9.67813H21.4852C19.8322 9.67813 18.4922 8.33813 18.4922 6.68516V0.699219Z" fill="white"/>
<path d="M7.6913 23.9102H5.95515V19.0126H7.70565C8.19828 19.0126 8.62235 19.1106 8.97787 19.3067C9.3334 19.5012 9.60681 19.781 9.79812 20.1461C9.99103 20.5112 10.0875 20.948 10.0875 21.4566C10.0875 21.9667 9.99103 22.4052 9.79812 22.7719C9.60681 23.1385 9.3318 23.4199 8.97309 23.616C8.61598 23.8121 8.18871 23.9102 7.6913 23.9102ZM6.99062 23.0229H7.64826C7.95435 23.0229 8.21183 22.9687 8.42068 22.8603C8.63112 22.7503 8.78895 22.5805 8.89417 22.351C9.00099 22.1198 9.0544 21.8217 9.0544 21.4566C9.0544 21.0947 9.00099 20.7989 8.89417 20.5694C8.78895 20.3398 8.63192 20.1708 8.42307 20.0624C8.21422 19.954 7.95675 19.8998 7.65065 19.8998H6.99062V23.0229ZM15.3551 21.4614C15.3551 21.9954 15.2539 22.4498 15.0514 22.8245C14.8506 23.1991 14.5763 23.4853 14.2288 23.683C13.8828 23.8791 13.4938 23.9771 13.0618 23.9771C12.6266 23.9771 12.236 23.8783 11.89 23.6806C11.544 23.4829 11.2706 23.1967 11.0697 22.8221C10.8689 22.4474 10.7684 21.9938 10.7684 21.4614C10.7684 20.9273 10.8689 20.4729 11.0697 20.0983C11.2706 19.7236 11.544 19.4382 11.89 19.2421C12.236 19.0445 12.6266 18.9456 13.0618 18.9456C13.4938 18.9456 13.8828 19.0445 14.2288 19.2421C14.5763 19.4382 14.8506 19.7236 15.0514 20.0983C15.2539 20.4729 15.3551 20.9273 15.3551 21.4614ZM14.3053 21.4614C14.3053 21.1154 14.2535 20.8237 14.1499 20.5861C14.0478 20.3486 13.9036 20.1684 13.717 20.0457C13.5305 19.9229 13.3121 19.8615 13.0618 19.8615C12.8115 19.8615 12.5931 19.9229 12.4065 20.0457C12.22 20.1684 12.0749 20.3486 11.9713 20.5861C11.8693 20.8237 11.8183 21.1154 11.8183 21.4614C11.8183 21.8073 11.8693 22.0991 11.9713 22.3366C12.0749 22.5742 12.22 22.7543 12.4065 22.8771C12.5931 22.9998 12.8115 23.0612 13.0618 23.0612C13.3121 23.0612 13.5305 22.9998 13.717 22.8771C13.9036 22.7543 14.0478 22.5742 14.1499 22.3366C14.2535 22.0991 14.3053 21.8073 14.3053 21.4614ZM20.4434 20.7272H19.396C19.3769 20.5917 19.3378 20.4713 19.2788 20.3661C19.2198 20.2593 19.1441 20.1684 19.0516 20.0935C18.9592 20.0186 18.8524 19.9612 18.7312 19.9213C18.6116 19.8814 18.4817 19.8615 18.3414 19.8615C18.0879 19.8615 17.8671 19.9245 17.679 20.0504C17.4909 20.1748 17.345 20.3565 17.2414 20.5957C17.1377 20.8332 17.0859 21.1218 17.0859 21.4614C17.0859 21.8105 17.1377 22.1039 17.2414 22.3414C17.3466 22.5789 17.4932 22.7583 17.6814 22.8795C17.8695 23.0006 18.0871 23.0612 18.3342 23.0612C18.4729 23.0612 18.6013 23.0429 18.7192 23.0062C18.8388 22.9695 18.9448 22.9161 19.0373 22.846C19.1298 22.7742 19.2063 22.6874 19.2669 22.5853C19.329 22.4833 19.3721 22.3669 19.396 22.2362L20.4434 22.241C20.4163 22.4658 20.3486 22.6826 20.2402 22.8914C20.1334 23.0987 19.9891 23.2844 19.8073 23.4486C19.6272 23.6112 19.4119 23.7404 19.1616 23.836C18.9129 23.9301 18.6316 23.9771 18.3175 23.9771C17.8807 23.9771 17.4901 23.8783 17.1457 23.6806C16.8029 23.4829 16.5319 23.1967 16.3326 22.8221C16.1349 22.4474 16.0361 21.9938 16.0361 21.4614C16.0361 20.9273 16.1365 20.4729 16.3374 20.0983C16.5383 19.7236 16.8109 19.4382 17.1553 19.2421C17.4996 19.0445 17.887 18.9456 18.3175 18.9456C18.6013 18.9456 18.8643 18.9855 19.1066 19.0652C19.3506 19.1449 19.5666 19.2613 19.7547 19.4143C19.9428 19.5658 20.0959 19.7515 20.2139 19.9715C20.3334 20.1915 20.41 20.4434 20.4434 20.7272ZM22.0517 19.0126L23.0393 20.6818H23.0776L24.07 19.0126H25.2394L23.7448 21.4614L25.2729 23.9102H24.082L23.0776 22.2386H23.0393L22.0349 23.9102H20.8488L22.3817 21.4614L20.8775 19.0126H22.0517Z" fill="white"/>
</svg>
