<svg width="16" height="17" viewBox="0 0 16 17" fill="none" xmlns="http://www.w3.org/2000/svg">
<path d="M3.33333 6.75391C2.6 6.75391 2 7.35391 2 8.08724C2 8.82057 2.6 9.42057 3.33333 9.42057C4.06667 9.42057 4.66667 8.82057 4.66667 8.08724C4.66667 7.35391 4.06667 6.75391 3.33333 6.75391Z" fill="#FBFBFB"/>
<path d="M12.6663 6.75391C11.933 6.75391 11.333 7.35391 11.333 8.08724C11.333 8.82057 11.933 9.42057 12.6663 9.42057C13.3997 9.42057 13.9997 8.82057 13.9997 8.08724C13.9997 7.35391 13.3997 6.75391 12.6663 6.75391Z" fill="#FBFBFB"/>
<path d="M8.00033 6.75391C7.26699 6.75391 6.66699 7.35391 6.66699 8.08724C6.66699 8.82057 7.26699 9.42057 8.00033 9.42057C8.73366 9.42057 9.33366 8.82057 9.33366 8.08724C9.33366 7.35391 8.73366 6.75391 8.00033 6.75391Z" fill="#FBFBFB"/>
</svg>
