<svg width="31" height="31" viewBox="0 0 31 31" fill="none" xmlns="http://www.w3.org/2000/svg">
<path d="M3.52734 3.69219C3.52734 2.03922 4.86734 0.699219 6.52031 0.699219H18.4922L27.4711 9.67813V27.6359C27.4711 29.2889 26.1311 30.6289 24.4781 30.6289H6.52032C4.86735 30.6289 3.52734 29.2889 3.52734 27.6359V3.69219Z" fill="#D92D20"/>
<path opacity="0.3" d="M18.4922 0.699219L27.4711 9.67813H21.4852C19.8322 9.67813 18.4922 8.33813 18.4922 6.68516V0.699219Z" fill="white"/>
<path d="M9.32552 23.9102V19.0126H11.2578C11.6292 19.0126 11.9457 19.0835 12.2072 19.2254C12.4686 19.3657 12.6679 19.561 12.805 19.8113C12.9437 20.06 13.0131 20.347 13.0131 20.6722C13.0131 20.9974 12.9429 21.2844 12.8026 21.5331C12.6623 21.7818 12.4591 21.9755 12.1928 22.1142C11.9282 22.2529 11.6077 22.3223 11.2315 22.3223H9.9999V21.4925H11.0641C11.2634 21.4925 11.4276 21.4582 11.5567 21.3896C11.6874 21.3195 11.7847 21.223 11.8484 21.1003C11.9138 20.9759 11.9465 20.8332 11.9465 20.6722C11.9465 20.5096 11.9138 20.3677 11.8484 20.2465C11.7847 20.1238 11.6874 20.0289 11.5567 19.962C11.426 19.8934 11.2602 19.8591 11.0593 19.8591H10.361V23.9102H9.32552ZM15.4218 23.9102H13.6856V19.0126H15.4361C15.9288 19.0126 16.3528 19.1106 16.7084 19.3067C17.0639 19.5012 17.3373 19.781 17.5286 20.1461C17.7215 20.5112 17.818 20.948 17.818 21.4566C17.818 21.9667 17.7215 22.4052 17.5286 22.7719C17.3373 23.1385 17.0623 23.4199 16.7036 23.616C16.3465 23.8121 15.9192 23.9102 15.4218 23.9102ZM14.7211 23.0229H15.3788C15.6849 23.0229 15.9423 22.9687 16.1512 22.8603C16.3616 22.7503 16.5194 22.5805 16.6247 22.351C16.7315 22.1198 16.7849 21.8217 16.7849 21.4566C16.7849 21.0947 16.7315 20.7989 16.6247 20.5694C16.5194 20.3398 16.3624 20.1708 16.1536 20.0624C15.9447 19.954 15.6872 19.8998 15.3811 19.8998H14.7211V23.0229ZM18.585 23.9102V19.0126H21.8278V19.8663H19.6205V21.0333H21.6125V21.887H19.6205V23.9102H18.585Z" fill="white"/>
</svg>
