<svg width="13" height="13" viewBox="0 0 13 13" fill="none" xmlns="http://www.w3.org/2000/svg">
<path d="M8.40258 1.56547L3.88758 3.06547C0.852578 4.08047 0.852578 5.73547 3.88758 6.74547L5.22758 7.19047L5.67258 8.53047C6.68258 11.5655 8.34258 11.5655 9.35258 8.53047L10.8576 4.02047C11.5276 1.99547 10.4276 0.890471 8.40258 1.56547ZM8.56258 4.25547L6.66258 6.16547C6.58758 6.24047 6.49258 6.27547 6.39758 6.27547C6.30258 6.27547 6.20758 6.24047 6.13258 6.16547C5.98758 6.02047 5.98758 5.78047 6.13258 5.63547L8.03258 3.72547C8.17758 3.58047 8.41758 3.58047 8.56258 3.72547C8.70758 3.87047 8.70758 4.11047 8.56258 4.25547Z" fill="#AEAEAE"/>
</svg>
