<svg width="12" height="13" viewBox="0 0 12 13" fill="none" xmlns="http://www.w3.org/2000/svg">
<path d="M6 8.48828C6.82843 8.48828 7.5 7.81671 7.5 6.98828C7.5 6.15985 6.82843 5.48828 6 5.48828C5.17157 5.48828 4.5 6.15985 4.5 6.98828C4.5 7.81671 5.17157 8.48828 6 8.48828Z" stroke="#0C0C0D" stroke-width="1.52725" stroke-miterlimit="10" stroke-linecap="round" stroke-linejoin="round"/>
<path d="M1 7.42898V6.54898C1 6.02898 1.425 5.59898 1.95 5.59898C2.855 5.59898 3.225 4.95898 2.77 4.17398C2.51 3.72398 2.665 3.13898 3.12 2.87898L3.985 2.38398C4.38 2.14898 4.89 2.28898 5.125 2.68398L5.18 2.77898C5.63 3.56398 6.37 3.56398 6.825 2.77898L6.88 2.68398C7.115 2.28898 7.625 2.14898 8.02 2.38398L8.885 2.87898C9.34 3.13898 9.495 3.72398 9.235 4.17398C8.78 4.95898 9.15 5.59898 10.055 5.59898C10.575 5.59898 11.005 6.02398 11.005 6.54898V7.42898C11.005 7.94898 10.58 8.37898 10.055 8.37898C9.15 8.37898 8.78 9.01898 9.235 9.80398C9.495 10.259 9.34 10.839 8.885 11.099L8.02 11.594C7.625 11.829 7.115 11.689 6.88 11.294L6.825 11.199C6.375 10.414 5.635 10.414 5.18 11.199L5.125 11.294C4.89 11.689 4.38 11.829 3.985 11.594L3.12 11.099C2.665 10.839 2.51 10.254 2.77 9.80398C3.225 9.01898 2.855 8.37898 1.95 8.37898C1.425 8.37898 1 7.94898 1 7.42898Z" stroke="#0C0C0D" stroke-width="1.52725" stroke-miterlimit="10" stroke-linecap="round" stroke-linejoin="round"/>
</svg>
