<svg width="12" height="13" viewBox="0 0 12 13" fill="none" xmlns="http://www.w3.org/2000/svg">
<path d="M7.44531 2.225H4.55531C4.35531 2.225 4.19531 2.065 4.19531 1.865C4.19531 1.665 4.35531 1.5 4.55531 1.5H7.44531C7.64531 1.5 7.80531 1.66 7.80531 1.86C7.80531 2.06 7.64531 2.225 7.44531 2.225Z" fill="#73A8A1"/>
<path d="M9.985 8H8.515C7.88 8 7.5 8.38 7.5 9.015V10.485C7.5 11.12 7.88 11.5 8.515 11.5H9.985C10.62 11.5 11 11.12 11 10.485V9.015C11 8.38 10.62 8 9.985 8ZM9.845 10.23L9.255 10.57C9.135 10.64 9.015 10.675 8.905 10.675C8.82 10.675 8.745 10.655 8.675 10.615C8.515 10.52 8.425 10.335 8.425 10.09V9.41C8.425 9.165 8.515 8.98 8.675 8.885C8.835 8.79 9.04 8.81 9.255 8.93L9.845 9.27C10.055 9.395 10.175 9.565 10.175 9.75C10.175 9.935 10.06 10.105 9.845 10.23Z" fill="#73A8A1"/>
<path d="M7.00004 10.4842V9.01422C7.00004 8.10922 7.61004 7.49922 8.51504 7.49922H9.98504C10.1 7.49922 10.21 7.50922 10.315 7.52922C10.325 7.40922 10.335 7.28922 10.335 7.16422C10.335 4.76922 8.39004 2.82422 6.00004 2.82422C3.61004 2.82422 1.66504 4.76922 1.66504 7.16422C1.66504 9.55422 3.61004 11.4992 6.00004 11.4992C6.42504 11.4992 6.83004 11.4292 7.22004 11.3192C7.08004 11.0842 7.00004 10.8042 7.00004 10.4842ZM6.37504 6.99922C6.37504 7.20422 6.20504 7.37422 6.00004 7.37422C5.79504 7.37422 5.62504 7.20422 5.62504 6.99922V4.49922C5.62504 4.29422 5.79504 4.12422 6.00004 4.12422C6.20504 4.12422 6.37504 4.29422 6.37504 4.49922V6.99922Z" fill="#73A8A1"/>
</svg>
