<svg width="12" height="13" viewBox="0 0 12 13" fill="none" xmlns="http://www.w3.org/2000/svg">
<path d="M10.5 3.69922C8.835 3.53422 7.16 3.44922 5.49 3.44922C4.5 3.44922 3.51 3.49922 2.52 3.59922L1.5 3.69922" stroke="#292D32" stroke-linecap="round" stroke-linejoin="round"/>
<path d="M4.25 3.19594L4.36 2.54094C4.44 2.06594 4.5 1.71094 5.345 1.71094H6.655C7.5 1.71094 7.565 2.08594 7.64 2.54594L7.75 3.19594" stroke="#292D32" stroke-linecap="round" stroke-linejoin="round"/>
<path d="M9.4252 5.28125L9.1002 10.3162C9.0452 11.1012 9.0002 11.7112 7.6052 11.7112H4.3952C3.0002 11.7112 2.9552 11.1012 2.9002 10.3162L2.5752 5.28125" stroke="#292D32" stroke-linecap="round" stroke-linejoin="round"/>
<path d="M5.16504 8.96094H6.83004" stroke="#292D32" stroke-linecap="round" stroke-linejoin="round"/>
<path d="M4.75 6.96094H7.25" stroke="#292D32" stroke-linecap="round" stroke-linejoin="round"/>
</svg>
