<svg width="31" height="31" viewBox="0 0 31 31" fill="none" xmlns="http://www.w3.org/2000/svg">
<path d="M3.52734 3.69219C3.52734 2.03922 4.86734 0.699219 6.52031 0.699219H18.4922L27.4711 9.67813V27.6359C27.4711 29.2889 26.1311 30.6289 24.4781 30.6289H6.52032C4.86735 30.6289 3.52734 29.2889 3.52734 27.6359V3.69219Z" fill="#079455"/>
<path opacity="0.3" d="M18.4922 0.699219L27.4711 9.67813H21.4852C19.8322 9.67813 18.4922 8.33813 18.4922 6.68516V0.699219Z" fill="white"/>
<path d="M10.3721 19.0126L11.3597 20.6818H11.398L12.3904 19.0126H13.5598L12.0652 21.4614L13.5933 23.9102H12.4024L11.398 22.2386H11.3597L10.3553 23.9102H9.16919L10.7021 21.4614L9.19788 19.0126H10.3721ZM14.215 23.9102V19.0126H15.2505V23.0564H17.3502V23.9102H14.215ZM20.6927 20.4211C20.6736 20.2282 20.5915 20.0783 20.4464 19.9715C20.3013 19.8647 20.1045 19.8113 19.8558 19.8113C19.6868 19.8113 19.5441 19.8352 19.4277 19.883C19.3113 19.9293 19.222 19.9938 19.1599 20.0767C19.0993 20.1596 19.069 20.2537 19.069 20.3589C19.0658 20.4466 19.0841 20.5231 19.124 20.5885C19.1654 20.6539 19.222 20.7105 19.2938 20.7583C19.3655 20.8045 19.4484 20.8452 19.5425 20.8803C19.6365 20.9137 19.737 20.9424 19.8438 20.9663L20.2838 21.0716C20.4974 21.1194 20.6935 21.1832 20.8721 21.2629C21.0507 21.3426 21.2053 21.4406 21.336 21.557C21.4668 21.6734 21.568 21.8105 21.6397 21.9683C21.7131 22.1262 21.7505 22.3071 21.7521 22.5112C21.7505 22.8109 21.674 23.0708 21.5226 23.2908C21.3727 23.5092 21.1559 23.679 20.8721 23.8002C20.5899 23.9197 20.2495 23.9795 19.851 23.9795C19.4556 23.9795 19.1112 23.9189 18.8179 23.7978C18.5261 23.6766 18.2982 23.4972 18.1339 23.2597C17.9713 23.0206 17.886 22.7248 17.8781 22.3725H18.8801C18.8912 22.5367 18.9383 22.6738 19.0212 22.7838C19.1056 22.8922 19.218 22.9743 19.3583 23.0301C19.5002 23.0843 19.6605 23.1114 19.839 23.1114C20.0144 23.1114 20.1666 23.0859 20.2958 23.0349C20.4265 22.9839 20.5277 22.9129 20.5995 22.8221C20.6712 22.7312 20.7071 22.6268 20.7071 22.5088C20.7071 22.3988 20.6744 22.3063 20.609 22.2314C20.5453 22.1565 20.4512 22.0927 20.3269 22.0401C20.2041 21.9875 20.0534 21.9396 19.8749 21.8966L19.3416 21.7627C18.9287 21.6622 18.6027 21.5052 18.3635 21.2916C18.1244 21.0779 18.0056 20.7902 18.0072 20.4283C18.0056 20.1317 18.0845 19.8727 18.2439 19.6511C18.405 19.4295 18.6258 19.2565 18.9064 19.1321C19.187 19.0078 19.5058 18.9456 19.8629 18.9456C20.2264 18.9456 20.5437 19.0078 20.8147 19.1321C21.0873 19.2565 21.2994 19.4295 21.4508 19.6511C21.6023 19.8727 21.6804 20.1294 21.6852 20.4211H20.6927Z" fill="white"/>
</svg>
