<svg width="209" height="209" viewBox="0 0 209 209" fill="none"
  xmlns="http://www.w3.org/2000/svg">
  <circle opacity="0.1" cx="104.5" cy="104.043" r="104.036" fill="#DED9F7"/>
  <circle opacity="0.1" cx="104.501" cy="104.043" r="81.1287" fill="#DED9F7"/>
  <circle opacity="0.2" cx="104.501" cy="104.046" r="62.3036" fill="#DED9F7"/>
  <circle cx="104.501" cy="104.043" r="41.957" fill="url(#paint0_linear_10877_286742)" stroke="#EEECFB" stroke-width="2"/>
  <path d="M123.7 121.144C123.868 121.367 123.97 121.632 123.995 121.909C124.021 122.187 123.968 122.466 123.843 122.716C123.719 122.965 123.527 123.175 123.29 123.322C123.052 123.468 122.779 123.546 122.5 123.546H86.5C86.2214 123.546 85.9484 123.468 85.7114 123.322C85.4744 123.175 85.2829 122.966 85.1584 122.716C85.0338 122.467 84.981 122.188 85.0061 121.911C85.0311 121.633 85.1329 121.368 85.3 121.146C86.6282 119.365 88.3994 117.963 90.4375 117.079C89.3203 116.059 88.5376 114.725 88.1919 113.253C87.8463 111.781 87.9539 110.238 88.5007 108.828C89.0475 107.417 90.0079 106.206 91.2558 105.351C92.5038 104.496 93.9809 104.039 95.4934 104.039C97.0059 104.039 98.4831 104.496 99.7311 105.351C100.979 106.206 101.939 107.417 102.486 108.828C103.033 110.238 103.141 111.781 102.795 113.253C102.449 114.725 101.667 116.059 100.549 117.079C102.02 117.714 103.356 118.624 104.487 119.758C105.618 118.624 106.954 117.714 108.424 117.079C107.307 116.059 106.524 114.725 106.179 113.253C105.833 111.781 105.941 110.238 106.488 108.828C107.034 107.417 107.995 106.206 109.243 105.351C110.491 104.496 111.968 104.039 113.48 104.039C114.993 104.039 116.47 104.496 117.718 105.351C118.966 106.206 119.926 107.417 120.473 108.828C121.02 110.238 121.127 111.781 120.782 113.253C120.436 114.725 119.653 116.059 118.536 117.079C120.584 117.958 122.364 119.36 123.7 121.144ZM85.6 103.746C85.7576 103.864 85.9369 103.95 86.1277 103.999C86.3185 104.048 86.5171 104.058 86.7121 104.03C86.9071 104.003 87.0947 103.937 87.2642 103.836C87.4337 103.736 87.5818 103.603 87.7 103.446C88.6082 102.235 89.7858 101.252 91.1397 100.575C92.4935 99.898 93.9864 99.5456 95.5 99.5456C97.0136 99.5456 98.5065 99.898 99.8603 100.575C101.214 101.252 102.392 102.235 103.3 103.446C103.44 103.632 103.621 103.783 103.829 103.887C104.037 103.991 104.267 104.046 104.5 104.046C104.733 104.046 104.963 103.991 105.171 103.887C105.379 103.783 105.56 103.632 105.7 103.446C106.608 102.235 107.786 101.252 109.14 100.575C110.494 99.898 111.986 99.5456 113.5 99.5456C115.014 99.5456 116.506 99.898 117.86 100.575C119.214 101.252 120.392 102.235 121.3 103.446C121.418 103.603 121.567 103.736 121.736 103.836C121.906 103.937 122.093 104.002 122.289 104.03C122.484 104.058 122.682 104.047 122.873 103.998C123.064 103.949 123.243 103.863 123.401 103.745C123.559 103.626 123.691 103.478 123.792 103.309C123.892 103.139 123.958 102.951 123.986 102.756C124.013 102.561 124.002 102.362 123.953 102.171C123.904 101.981 123.818 101.801 123.7 101.644C122.372 99.8634 120.601 98.462 118.562 97.5787C119.68 96.5591 120.462 95.2255 120.808 93.753C121.154 92.2805 121.046 90.7379 120.499 89.3277C119.953 87.9175 118.992 86.7056 117.744 85.851C116.496 84.9964 115.019 84.5391 113.507 84.5391C111.994 84.5391 110.517 84.9964 109.269 85.851C108.021 86.7056 107.061 87.9175 106.514 89.3277C105.967 90.7379 105.859 92.2805 106.205 93.753C106.551 95.2255 107.333 96.5591 108.451 97.5787C106.98 98.2143 105.644 99.1235 104.513 100.258C103.382 99.1235 102.046 98.2143 100.576 97.5787C101.693 96.5591 102.476 95.2255 102.821 93.753C103.167 92.2805 103.059 90.7379 102.512 89.3277C101.966 87.9175 101.005 86.7056 99.7573 85.851C98.5094 84.9964 97.0322 84.5391 95.5197 84.5391C94.0072 84.5391 92.53 84.9964 91.2821 85.851C90.0341 86.7056 89.0737 87.9175 88.5269 89.3277C87.9801 90.7379 87.8725 92.2805 88.2182 93.753C88.5638 95.2255 89.3466 96.5591 90.4638 97.5787C88.4161 98.4588 86.6355 99.8612 85.3 101.646C85.1818 101.803 85.0958 101.982 85.0469 102.173C84.998 102.364 84.9872 102.563 85.0151 102.758C85.0429 102.953 85.1089 103.14 85.2093 103.31C85.3097 103.479 85.4424 103.627 85.6 103.746Z" fill="#CEC6F3"/>
  <defs>
    <linearGradient id="paint0_linear_10877_286742" x1="126.26" y1="83.0936" x2="98.4026" y2="152.475" gradientUnits="userSpaceOnUse">
      <stop stop-color="white"/>
      <stop offset="1" stop-color="#F5F6FB"/>
    </linearGradient>
  </defs>
</svg>
