<svg width="209" height="209" viewBox="0 0 209 209" fill="none"
  xmlns="http://www.w3.org/2000/svg">
  <circle opacity="0.1" cx="104.5" cy="104.083" r="104.036" fill="#DED9F7"/>
  <circle opacity="0.1" cx="104.501" cy="104.082" r="81.1287" fill="#DED9F7"/>
  <circle opacity="0.2" cx="104.501" cy="104.085" r="62.3036" fill="#DED9F7"/>
  <circle cx="104.501" cy="104.082" r="41.957" fill="url(#paint0_linear_10877_274029)" stroke="#EEECFB" stroke-width="2"/>
  <path d="M119.5 86.0859H89.5C88.7044 86.0859 87.9413 86.402 87.3787 86.9646C86.8161 87.5272 86.5 88.2903 86.5 89.0859V119.086C86.5 119.882 86.8161 120.645 87.3787 121.207C87.9413 121.77 88.7044 122.086 89.5 122.086H119.5C120.296 122.086 121.059 121.77 121.621 121.207C122.184 120.645 122.5 119.882 122.5 119.086V89.0859C122.5 88.2903 122.184 87.5272 121.621 86.9646C121.059 86.402 120.296 86.0859 119.5 86.0859ZM98.5 92.0859C98.5 91.6881 98.658 91.3066 98.9393 91.0253C99.2206 90.744 99.6022 90.5859 100 90.5859C100.398 90.5859 100.779 90.744 101.061 91.0253C101.342 91.3066 101.5 91.6881 101.5 92.0859V95.0859C101.5 95.4838 101.342 95.8653 101.061 96.1466C100.779 96.4279 100.398 96.5859 100 96.5859C99.6022 96.5859 99.2206 96.4279 98.9393 96.1466C98.658 95.8653 98.5 95.4838 98.5 95.0859V92.0859ZM92.5 98.0859H95.5C95.8978 98.0859 96.2794 98.244 96.5607 98.5253C96.842 98.8066 97 99.1881 97 99.5859C97 99.9838 96.842 100.365 96.5607 100.647C96.2794 100.928 95.8978 101.086 95.5 101.086H92.5C92.1022 101.086 91.7206 100.928 91.4393 100.647C91.158 100.365 91 99.9838 91 99.5859C91 99.1881 91.158 98.8066 91.4393 98.5253C91.7206 98.244 92.1022 98.0859 92.5 98.0859ZM104.515 114.147L103.163 115.499C102.502 116.163 101.716 116.69 100.851 117.05C99.9864 117.41 99.0589 117.595 98.1219 117.596C97.185 117.597 96.2571 117.414 95.3914 117.055C94.5256 116.697 93.7389 116.172 93.0764 115.51C92.4139 114.847 91.8886 114.06 91.5305 113.195C91.1724 112.329 90.9886 111.401 90.9896 110.464C90.9905 109.527 91.1763 108.6 91.5362 107.735C91.896 106.869 92.423 106.084 93.0869 105.423L94.4387 104.071C94.72 103.789 95.1015 103.631 95.4993 103.631C95.8972 103.631 96.2789 103.789 96.5603 104.07C96.8418 104.351 97 104.733 97.0002 105.131C97.0003 105.528 96.8425 105.91 96.5613 106.192L95.2075 107.543C94.4337 108.317 93.999 109.367 93.999 110.461C93.999 111.555 94.4337 112.605 95.2075 113.378C95.9813 114.152 97.0307 114.587 98.125 114.587C99.2193 114.587 100.269 114.152 101.042 113.378L102.394 112.025C102.534 111.885 102.699 111.775 102.881 111.7C103.063 111.624 103.258 111.586 103.455 111.586C103.652 111.586 103.847 111.625 104.029 111.7C104.211 111.776 104.377 111.886 104.516 112.026C104.655 112.165 104.766 112.33 104.841 112.512C104.916 112.695 104.955 112.89 104.955 113.087C104.955 113.284 104.916 113.479 104.84 113.661C104.765 113.843 104.654 114.008 104.515 114.147ZM110.5 116.086C110.5 116.484 110.342 116.865 110.061 117.147C109.779 117.428 109.398 117.586 109 117.586C108.602 117.586 108.221 117.428 107.939 117.147C107.658 116.865 107.5 116.484 107.5 116.086V113.086C107.5 112.688 107.658 112.307 107.939 112.025C108.221 111.744 108.602 111.586 109 111.586C109.398 111.586 109.779 111.744 110.061 112.025C110.342 112.307 110.5 112.688 110.5 113.086V116.086ZM116.5 110.086H113.5C113.102 110.086 112.721 109.928 112.439 109.647C112.158 109.365 112 108.984 112 108.586C112 108.188 112.158 107.807 112.439 107.525C112.721 107.244 113.102 107.086 113.5 107.086H116.5C116.898 107.086 117.279 107.244 117.561 107.525C117.842 107.807 118 108.188 118 108.586C118 108.984 117.842 109.365 117.561 109.647C117.279 109.928 116.898 110.086 116.5 110.086ZM115.913 102.749L114.561 104.101C114.28 104.382 113.899 104.541 113.501 104.541C113.103 104.541 112.721 104.383 112.44 104.102C112.158 103.821 112 103.439 112 103.041C112 102.643 112.158 102.262 112.439 101.98L113.792 100.628C114.566 99.8547 115.001 98.8052 115.001 97.7109C115.001 96.6167 114.566 95.5672 113.792 94.7934C113.019 94.0197 111.969 93.585 110.875 93.585C109.781 93.585 108.731 94.0197 107.958 94.7934L106.606 96.1472C106.324 96.4284 105.943 96.5863 105.545 96.5861C105.147 96.5859 104.765 96.4277 104.484 96.1462C104.203 95.8648 104.045 95.4831 104.045 95.0853C104.045 94.6874 104.204 94.3059 104.485 94.0247L105.837 92.6728C106.498 92.0089 107.284 91.482 108.149 91.1221C109.014 90.7622 109.941 90.5765 110.878 90.5755C111.815 90.5745 112.743 90.7584 113.609 91.1164C114.474 91.4745 115.261 91.9999 115.924 92.6624C116.586 93.3249 117.111 94.1115 117.469 94.9773C117.828 95.8431 118.011 96.771 118.01 97.7079C118.009 98.6448 117.824 99.5723 117.464 100.437C117.104 101.302 116.577 102.088 115.913 102.749Z" fill="#CEC6F3"/>
  <defs>
    <linearGradient id="paint0_linear_10877_274029" x1="126.26" y1="83.1327" x2="98.4026" y2="152.514" gradientUnits="userSpaceOnUse">
      <stop stop-color="white"/>
      <stop offset="1" stop-color="#F5F6FB"/>
    </linearGradient>
  </defs>
</svg>
