<svg width="209" height="209" viewBox="0 0 209 209" fill="none"
  xmlns="http://www.w3.org/2000/svg">
  <circle opacity="0.1" cx="104.25" cy="104.043" r="104.036" fill="#DED9F7"/>
  <circle opacity="0.1" cx="104.251" cy="104.043" r="81.1287" fill="#DED9F7"/>
  <circle opacity="0.2" cx="104.251" cy="104.046" r="62.3036" fill="#DED9F7"/>
  <circle cx="104.251" cy="104.043" r="41.957" fill="url(#paint0_linear_10877_296339)" stroke="#EEECFB" stroke-width="2"/>
  <path d="M92.2725 107.761C92.2776 107.862 92.262 107.964 92.2266 108.059C92.1912 108.155 92.1367 108.242 92.0666 108.315C91.9964 108.389 91.912 108.448 91.8185 108.488C91.7249 108.528 91.6242 108.548 91.5225 108.548H83.25C82.9115 108.549 82.5827 108.435 82.3172 108.225C82.0516 108.015 81.865 107.721 81.7875 107.391C81.7393 107.166 81.7415 106.932 81.794 106.708C81.8465 106.483 81.948 106.273 82.0913 106.092C83.4147 104.337 85.1706 102.955 87.1875 102.081C86.302 101.274 85.6228 100.266 85.2069 99.1423C84.791 98.0184 84.6504 96.8113 84.7969 95.622C84.9434 94.4327 85.3728 93.2957 86.0491 92.3065C86.7254 91.3172 87.6288 90.5044 88.6838 89.9361C89.7388 89.3678 90.9146 89.0606 92.1128 89.0402C93.3109 89.0197 94.4965 89.2867 95.5703 89.8187C96.6441 90.3507 97.5747 91.1322 98.2843 92.0979C98.9939 93.0635 99.4618 94.1851 99.6488 95.3688C99.6729 95.5279 99.6444 95.6906 99.5676 95.8321C99.4907 95.9736 99.3698 96.0861 99.2231 96.1525C97.1426 97.1143 95.3806 98.6512 94.1451 100.582C92.9095 102.512 92.252 104.756 92.25 107.048C92.25 107.288 92.25 107.524 92.2725 107.761ZM126.398 106.09C125.077 104.337 123.325 102.956 121.313 102.081C122.198 101.274 122.877 100.266 123.293 99.1423C123.709 98.0184 123.85 96.8113 123.703 95.622C123.557 94.4327 123.127 93.2957 122.451 92.3065C121.775 91.3172 120.871 90.5044 119.816 89.9361C118.761 89.3678 117.585 89.0606 116.387 89.0402C115.189 89.0197 114.004 89.2867 112.93 89.8187C111.856 90.3507 110.925 91.1322 110.216 92.0979C109.506 93.0635 109.038 94.1851 108.851 95.3688C108.827 95.5279 108.856 95.6906 108.932 95.8321C109.009 95.9736 109.13 96.0861 109.277 96.1525C111.357 97.1143 113.119 98.6512 114.355 100.582C115.59 102.512 116.248 104.756 116.25 107.048C116.25 107.288 116.25 107.524 116.228 107.761C116.222 107.862 116.238 107.964 116.273 108.059C116.309 108.155 116.363 108.242 116.433 108.315C116.504 108.389 116.588 108.448 116.682 108.488C116.775 108.528 116.876 108.548 116.978 108.548H125.25C125.589 108.549 125.917 108.435 126.183 108.225C126.448 108.015 126.635 107.721 126.713 107.391C126.761 107.165 126.759 106.931 126.706 106.706C126.653 106.481 126.551 106.271 126.407 106.09H126.398ZM109.71 114.186C111.204 113.042 112.301 111.459 112.848 109.66C113.396 107.86 113.365 105.934 112.762 104.152C112.158 102.37 111.011 100.823 109.482 99.7266C107.953 98.6305 106.119 98.041 104.238 98.041C102.357 98.041 100.523 98.6305 98.9938 99.7266C97.4649 100.823 96.318 102.37 95.7141 104.152C95.1102 105.934 95.0799 107.86 95.6272 109.66C96.1745 111.459 97.2721 113.042 98.7656 114.186C96.1154 115.335 93.9024 117.301 92.4506 119.798C92.319 120.026 92.2497 120.285 92.2497 120.548C92.2497 120.812 92.319 121.07 92.4507 121.298C92.5824 121.526 92.7718 121.716 92.9999 121.847C93.228 121.979 93.4867 122.048 93.75 122.048H114.75C115.013 122.048 115.272 121.979 115.5 121.847C115.728 121.716 115.918 121.526 116.049 121.298C116.181 121.07 116.25 120.812 116.25 120.548C116.25 120.285 116.181 120.026 116.049 119.798C114.595 117.3 112.377 115.333 109.723 114.186H109.71Z" fill="#CEC6F3"/>
  <defs>
    <linearGradient id="paint0_linear_10877_296339" x1="126.01" y1="83.0936" x2="98.1526" y2="152.475" gradientUnits="userSpaceOnUse">
      <stop stop-color="white"/>
      <stop offset="1" stop-color="#F5F6FB"/>
    </linearGradient>
  </defs>
</svg>
