<svg width="209" height="209" viewBox="0 0 209 209" fill="none"
  xmlns="http://www.w3.org/2000/svg">
  <circle opacity="0.1" cx="104.75" cy="104.043" r="104.036" fill="#DED9F7"/>
  <circle opacity="0.1" cx="104.751" cy="104.043" r="81.1287" fill="#DED9F7"/>
  <circle opacity="0.2" cx="104.751" cy="104.046" r="62.3036" fill="#DED9F7"/>
  <circle cx="104.751" cy="104.043" r="41.957" fill="url(#paint0_linear_10877_293724)" stroke="#EEECFB" stroke-width="2"/>
  <path d="M98.7987 86.986C98.7013 86.6019 98.7597 86.1949 98.9614 85.8538C99.163 85.5126 99.4915 85.2652 99.875 85.1654C103.073 84.3407 106.427 84.3407 109.625 85.1654C109.979 85.2561 110.288 85.473 110.494 85.7754C110.699 86.0778 110.787 86.4448 110.741 86.8075C110.695 87.1702 110.518 87.5036 110.243 87.745C109.969 87.9864 109.616 88.1193 109.25 88.1185C109.123 88.1179 108.997 88.1015 108.875 88.0698C106.169 87.3712 103.331 87.3712 100.625 88.0698C100.434 88.1188 100.235 88.1296 100.04 88.1016C99.8445 88.0736 99.6567 88.0074 99.4871 87.9067C99.3174 87.806 99.1693 87.6729 99.0512 87.5149C98.9331 87.3569 98.8473 87.1772 98.7987 86.986ZM87.0031 100.674C87.193 100.726 87.3913 100.741 87.5869 100.717C87.7825 100.693 87.9714 100.631 88.1429 100.534C88.3144 100.437 88.4651 100.307 88.5865 100.152C88.7078 99.9966 88.7973 99.819 88.85 99.6292C89.5982 96.9377 91.0176 94.4803 92.975 92.4873C93.236 92.2003 93.3756 91.8233 93.3646 91.4356C93.3536 91.0478 93.1929 90.6794 92.916 90.4076C92.6392 90.1359 92.2678 89.9819 91.8799 89.9782C91.492 89.9744 91.1177 90.121 90.8356 90.3873C88.5231 92.7421 86.8457 95.6452 85.9606 98.8248C85.9076 99.0146 85.8925 99.2131 85.9161 99.4087C85.9398 99.6044 86.0019 99.7935 86.0987 99.9652C86.1955 100.137 86.3252 100.288 86.4804 100.409C86.6356 100.531 86.8132 100.621 87.0031 100.674ZM120.648 99.631C120.755 100.014 121.009 100.34 121.355 100.536C121.702 100.732 122.112 100.782 122.495 100.675C122.878 100.569 123.204 100.315 123.4 99.9683C123.596 99.6219 123.646 99.2119 123.539 98.8285C122.655 95.6488 120.977 92.7456 118.664 90.391C118.526 90.2506 118.362 90.1387 118.18 90.0617C117.999 89.9848 117.804 89.9444 117.607 89.9427C117.41 89.9411 117.215 89.9782 117.032 90.0521C116.85 90.126 116.683 90.2351 116.543 90.3732C116.402 90.5114 116.29 90.6758 116.214 90.8572C116.137 91.0386 116.096 91.2333 116.094 91.4303C116.093 91.6273 116.13 91.8227 116.204 92.0054C116.278 92.188 116.387 92.3543 116.525 92.4948C118.481 94.487 119.9 96.943 120.648 99.6329V99.631ZM122.499 107.424C122.309 107.371 122.11 107.356 121.915 107.38C121.719 107.404 121.53 107.467 121.358 107.564C121.187 107.661 121.036 107.791 120.915 107.946C120.794 108.102 120.704 108.28 120.652 108.47C119.979 110.89 118.761 113.125 117.089 115C115.996 113.419 114.607 112.063 113 111.007C112.863 110.916 112.701 110.873 112.537 110.883C112.374 110.894 112.218 110.957 112.094 111.065C110.056 112.828 107.452 113.799 104.757 113.799C102.062 113.799 99.4567 112.828 97.4187 111.065C97.2947 110.957 97.1387 110.893 96.9748 110.882C96.8108 110.872 96.648 110.916 96.5112 111.007C94.8936 112.048 93.4929 113.393 92.3862 114.967C90.7309 113.096 89.5235 110.873 88.8556 108.466C88.7492 108.083 88.4948 107.757 88.1485 107.561C87.8021 107.365 87.3921 107.315 87.0087 107.422C86.6253 107.528 86.2999 107.782 86.104 108.129C85.9082 108.475 85.8579 108.885 85.9644 109.269C87.1108 113.371 89.5683 116.986 92.9616 119.561C96.355 122.136 100.498 123.53 104.757 123.53C109.017 123.53 113.16 122.136 116.553 119.561C119.947 116.986 122.404 113.371 123.551 109.269C123.603 109.078 123.617 108.88 123.593 108.684C123.568 108.488 123.505 108.299 123.407 108.128C123.31 107.956 123.179 107.806 123.023 107.685C122.867 107.564 122.689 107.475 122.499 107.424ZM104.75 110.799C106.382 110.799 107.977 110.315 109.333 109.408C110.69 108.502 111.748 107.213 112.372 105.706C112.996 104.198 113.16 102.539 112.841 100.939C112.523 99.3387 111.737 97.8687 110.584 96.7149C109.43 95.5611 107.96 94.7754 106.359 94.4571C104.759 94.1387 103.1 94.3021 101.593 94.9265C100.085 95.5509 98.7969 96.6084 97.8904 97.9651C96.9838 99.3218 96.5 100.917 96.5 102.549C96.5025 104.736 97.3725 106.833 98.9191 108.379C100.466 109.926 102.563 110.796 104.75 110.799Z" fill="#CEC6F3"/>
  <defs>
    <linearGradient id="paint0_linear_10877_293724" x1="126.51" y1="83.0936" x2="98.6526" y2="152.475" gradientUnits="userSpaceOnUse">
      <stop stop-color="white"/>
      <stop offset="1" stop-color="#F5F6FB"/>
    </linearGradient>
  </defs>
</svg>
