<svg width="12" height="13" viewBox="0 0 12 13" fill="none" xmlns="http://www.w3.org/2000/svg">
<path d="M8.77003 4.24125C9.44935 4.24125 10 3.69056 10 3.01125C10 2.33194 9.44935 1.78125 8.77003 1.78125C8.09072 1.78125 7.54004 2.33194 7.54004 3.01125C7.54004 3.69056 8.09072 4.24125 8.77003 4.24125Z" stroke="#292D32" stroke-miterlimit="10" stroke-linecap="round" stroke-linejoin="round"/>
<path d="M3.23 4.24125C3.90931 4.24125 4.46 3.69056 4.46 3.01125C4.46 2.33194 3.90931 1.78125 3.23 1.78125C2.55069 1.78125 2 2.33194 2 3.01125C2 3.69056 2.55069 4.24125 3.23 4.24125Z" stroke="#292D32" stroke-miterlimit="10" stroke-linecap="round" stroke-linejoin="round"/>
<path d="M8.77003 10.3897C9.44935 10.3897 10 9.839 10 9.15969C10 8.48038 9.44935 7.92969 8.77003 7.92969C8.09072 7.92969 7.54004 8.48038 7.54004 9.15969C7.54004 9.839 8.09072 10.3897 8.77003 10.3897Z" stroke="#292D32" stroke-miterlimit="10" stroke-linecap="round" stroke-linejoin="round"/>
<path d="M3.23 10.3897C3.90931 10.3897 4.46 9.839 4.46 9.15969C4.46 8.48038 3.90931 7.92969 3.23 7.92969C2.55069 7.92969 2 8.48038 2 9.15969C2 9.839 2.55069 10.3897 3.23 10.3897Z" stroke="#292D32" stroke-miterlimit="10" stroke-linecap="round" stroke-linejoin="round"/>
</svg>
