<svg width="12" height="13" viewBox="0 0 12 13" fill="none" xmlns="http://www.w3.org/2000/svg">
<g clip-path="url(#clip0_4575_1353)">
<path d="M8.04181 6.09636L8.04202 6.09634L8.04181 6.09636ZM8.04181 6.09636L7.82167 6.11841L7.82189 6.11895M8.04181 6.09656L8.04204 6.09654L7.82192 6.11903L8.04181 6.09656Z" fill="#CCDDDA" stroke="#CCDDDA" stroke-width="1.52725" stroke-linecap="round"/>
<mask id="path-2-inside-1_4575_1353" fill="white">
<path d="M9.6345 1.98633H7.5V1.61133H7.875C8.08238 1.61133 8.25 1.4437 8.25 1.23633C8.25 1.02895 8.08238 0.861328 7.875 0.861328H4.125C3.91762 0.861328 3.75 1.02895 3.75 1.23633C3.75 1.4437 3.91762 1.61133 4.125 1.61133H4.5V1.98633H2.3655C1.68113 1.98633 1.125 2.54245 1.125 3.22683V11.2462C1.125 11.9302 1.68113 12.4863 2.3655 12.4863H9.63488C10.3189 12.4863 10.875 11.9302 10.875 11.2458V3.22683C10.875 2.54245 10.3189 1.98633 9.6345 1.98633ZM5.25 1.61133H6.75V1.98633H5.25V1.61133ZM10.125 11.2458C10.125 11.5162 9.90487 11.7363 9.6345 11.7363H2.3655C2.09513 11.7363 1.875 11.5162 1.875 11.2458V3.22683C1.875 2.95645 2.09513 2.73633 2.3655 2.73633H9.63488C9.90488 2.73633 10.125 2.95645 10.125 3.22683V11.2458Z"/>
</mask>
<path d="M9.6345 1.98633H7.5V1.61133H7.875C8.08238 1.61133 8.25 1.4437 8.25 1.23633C8.25 1.02895 8.08238 0.861328 7.875 0.861328H4.125C3.91762 0.861328 3.75 1.02895 3.75 1.23633C3.75 1.4437 3.91762 1.61133 4.125 1.61133H4.5V1.98633H2.3655C1.68113 1.98633 1.125 2.54245 1.125 3.22683V11.2462C1.125 11.9302 1.68113 12.4863 2.3655 12.4863H9.63488C10.3189 12.4863 10.875 11.9302 10.875 11.2458V3.22683C10.875 2.54245 10.3189 1.98633 9.6345 1.98633ZM5.25 1.61133H6.75V1.98633H5.25V1.61133ZM10.125 11.2458C10.125 11.5162 9.90487 11.7363 9.6345 11.7363H2.3655C2.09513 11.7363 1.875 11.5162 1.875 11.2458V3.22683C1.875 2.95645 2.09513 2.73633 2.3655 2.73633H9.63488C9.90488 2.73633 10.125 2.95645 10.125 3.22683V11.2458Z" fill="#CCDDDA"/>
<path d="M7.5 1.98633H5.97275V3.51358H7.5V1.98633ZM7.5 1.61133V0.0840796H5.97275V1.61133H7.5ZM4.5 1.61133H6.02725V0.0840796H4.5V1.61133ZM4.5 1.98633V3.51358H6.02725V1.98633H4.5ZM5.25 1.61133V0.0840796H3.72275V1.61133H5.25ZM6.75 1.61133H8.27725V0.0840796H6.75V1.61133ZM6.75 1.98633V3.51358H8.27725V1.98633H6.75ZM5.25 1.98633H3.72275V3.51358H5.25V1.98633ZM9.6345 0.45908H7.5V3.51358H9.6345V0.45908ZM9.02725 1.98633V1.61133H5.97275V1.98633H9.02725ZM7.5 3.13858H7.875V0.0840796H7.5V3.13858ZM7.875 3.13858C8.92585 3.13858 9.77725 2.28718 9.77725 1.23633H6.72275C6.72275 0.600227 7.2389 0.0840796 7.875 0.0840796V3.13858ZM9.77725 1.23633C9.77725 0.185477 8.92585 -0.66592 7.875 -0.66592V2.38858C7.2389 2.38858 6.72275 1.87243 6.72275 1.23633H9.77725ZM7.875 -0.66592H4.125V2.38858H7.875V-0.66592ZM4.125 -0.66592C3.07415 -0.66592 2.22275 0.185477 2.22275 1.23633H5.27725C5.27725 1.87243 4.7611 2.38858 4.125 2.38858V-0.66592ZM2.22275 1.23633C2.22275 2.28718 3.07415 3.13858 4.125 3.13858V0.0840796C4.7611 0.0840796 5.27725 0.600227 5.27725 1.23633H2.22275ZM4.125 3.13858H4.5V0.0840796H4.125V3.13858ZM2.97275 1.61133V1.98633H6.02725V1.61133H2.97275ZM4.5 0.45908H2.3655V3.51358H4.5V0.45908ZM2.3655 0.45908C0.837649 0.45908 -0.402249 1.69898 -0.402249 3.22683H2.65225C2.65225 3.38593 2.5246 3.51358 2.3655 3.51358V0.45908ZM-0.402249 3.22683V11.2462H2.65225V3.22683H-0.402249ZM-0.402249 11.2462C-0.402249 12.774 0.83795 14.0136 2.3655 14.0136V10.9591C2.5243 10.9591 2.65225 11.0864 2.65225 11.2462H-0.402249ZM2.3655 14.0136H9.63488V10.9591H2.3655V14.0136ZM9.63488 14.0136C11.1627 14.0136 12.4022 12.7734 12.4022 11.2458H9.34775C9.34775 11.087 9.4751 10.9591 9.63488 10.9591V14.0136ZM12.4022 11.2458V3.22683H9.34775V11.2458H12.4022ZM12.4022 3.22683C12.4022 1.69898 11.1624 0.45908 9.6345 0.45908V3.51358C9.4754 3.51358 9.34775 3.38593 9.34775 3.22683H12.4022ZM5.25 3.13858H6.75V0.0840796H5.25V3.13858ZM5.22275 1.61133V1.98633H8.27725V1.61133H5.22275ZM6.75 0.45908H5.25V3.51358H6.75V0.45908ZM6.77725 1.98633V1.61133H3.72275V1.98633H6.77725ZM8.59775 11.2458C8.59775 10.6727 9.0614 10.2091 9.6345 10.2091V13.2636C10.7484 13.2636 11.6522 12.3597 11.6522 11.2458H8.59775ZM9.6345 10.2091H2.3655V13.2636H9.6345V10.2091ZM2.3655 10.2091C2.9386 10.2091 3.40225 10.6727 3.40225 11.2458H0.347751C0.347751 12.3597 1.25165 13.2636 2.3655 13.2636V10.2091ZM3.40225 11.2458V3.22683H0.347751V11.2458H3.40225ZM3.40225 3.22683C3.40225 3.79993 2.9386 4.26358 2.3655 4.26358V1.20908C1.25165 1.20908 0.347751 2.11298 0.347751 3.22683H3.40225ZM2.3655 4.26358H9.63488V1.20908H2.3655V4.26358ZM9.63488 4.26358C9.06064 4.26358 8.59775 3.79917 8.59775 3.22683H11.6522C11.6522 2.11374 10.7491 1.20908 9.63488 1.20908V4.26358ZM8.59775 3.22683V11.2458H11.6522V3.22683H8.59775Z" fill="#CCDDDA" mask="url(#path-2-inside-1_4575_1353)"/>
<path d="M2.98516 10.1122L2.98655 10.1136L2.98516 10.1122ZM4.67187 8.95502L4.67183 8.95506L4.67187 8.95502ZM4.40659 8.69005L4.40661 8.69006L4.40659 8.69005Z" fill="#CCDDDA" stroke="#CCDDDA" stroke-width="1.52725"/>
<path d="M6.75233 8.79003C6.4002 9.08328 6.07658 9.1909 6.0732 9.19203C5.87708 9.25465 5.76795 9.46465 5.82983 9.66153C5.88008 9.82165 6.02783 9.92403 6.18758 9.92403C6.2247 9.92403 6.26258 9.9184 6.30008 9.90678C6.34658 9.89215 6.7677 9.75303 7.23195 9.3664C7.39133 9.23365 7.4127 8.9974 7.28033 8.8384C7.14795 8.67865 6.9117 8.65765 6.75233 8.79003Z" fill="#CCDDDA"/>
<path d="M8.07982 6.82285C7.87432 6.79097 7.68382 6.93235 7.65269 7.1371C7.60132 7.47197 7.50119 7.7806 7.35344 8.05435C7.25519 8.2366 7.32382 8.46422 7.50607 8.5621C7.56232 8.59247 7.62344 8.60672 7.68344 8.60672C7.81694 8.60672 7.94632 8.53547 8.01419 8.40947C8.20244 8.05997 8.33032 7.6696 8.39407 7.2496C8.42519 7.04522 8.28457 6.85397 8.07982 6.82285Z" fill="#CCDDDA"/>
<path d="M4.156 3.98633C3.4495 3.98633 2.875 4.5612 2.875 5.2677C2.875 5.9742 3.4495 6.54908 4.156 6.54908C4.8625 6.54908 5.43738 5.9742 5.43738 5.2677C5.43738 4.5612 4.8625 3.98633 4.156 3.98633ZM4.156 5.79908C3.86313 5.79908 3.625 5.56058 3.625 5.2677C3.625 4.97483 3.86313 4.73633 4.156 4.73633C4.44888 4.73633 4.68738 4.97483 4.68738 5.2677C4.68738 5.56058 4.44888 5.79908 4.156 5.79908Z" fill="#CCDDDA"/>
</g>
<defs>
<clipPath id="clip0_4575_1353">
<rect width="12" height="12" fill="white" transform="translate(0 0.486328)"/>
</clipPath>
</defs>
</svg>
