<svg width="12" height="13" viewBox="0 0 12 13" fill="none" xmlns="http://www.w3.org/2000/svg">
<path d="M3.18535 5.2419C1.14535 5.3869 1.15035 8.3419 3.18535 8.4869H8.01535C8.60035 8.4919 9.16536 8.27191 9.60036 7.87691C11.0304 6.62691 10.2654 4.12689 8.38036 3.88689C7.70536 -0.183108 1.81036 1.3619 3.20536 5.2419" stroke="#CCDDDA" stroke-linecap="round" stroke-linejoin="round"/>
<path d="M6 8.48633V9.98633" stroke="#CCDDDA" stroke-width="1.52725" stroke-miterlimit="10" stroke-linecap="round" stroke-linejoin="round"/>
<path d="M6 11.9863C6.55228 11.9863 7 11.5386 7 10.9863C7 10.434 6.55228 9.98633 6 9.98633C5.44772 9.98633 5 10.434 5 10.9863C5 11.5386 5.44772 11.9863 6 11.9863Z" stroke="#CCDDDA" stroke-linecap="round" stroke-linejoin="round"/>
<path d="M9 10.9863H7" stroke="#CCDDDA" stroke-linecap="round" stroke-linejoin="round"/>
<path d="M5 10.9863H3" stroke="#CCDDDA" stroke-linecap="round" stroke-linejoin="round"/>
</svg>
