<svg width="12" height="13" viewBox="0 0 12 13" fill="none" xmlns="http://www.w3.org/2000/svg">
<path d="M4.25 9.98633H4C2 9.98633 1 9.48633 1 6.98633V4.48633C1 2.48633 2 1.48633 4 1.48633H8C10 1.48633 11 2.48633 11 4.48633V6.98633C11 8.98633 10 9.98633 8 9.98633H7.75C7.595 9.98633 7.445 10.0613 7.35 10.1863L6.6 11.1863C6.27 11.6263 5.73 11.6263 5.4 11.1863L4.65 10.1863C4.57 10.0763 4.385 9.98633 4.25 9.98633Z" stroke="#CCDDDA" stroke-miterlimit="10" stroke-linecap="round" stroke-linejoin="round"/>
<path d="M3.5 4.48633H8.5" stroke="#CCDDDA" stroke-linecap="round" stroke-linejoin="round"/>
<path d="M3.5 6.98633H6.5" stroke="white" stroke-linecap="round" stroke-linejoin="round"/>
</svg>
