<svg width="12" height="13" viewBox="0 0 12 13" fill="none" xmlns="http://www.w3.org/2000/svg">
<mask id="path-1-inside-1_4575_1263" fill="white">
<path d="M10.3271 8.53455L8.31 7.78155C7.94025 7.64355 7.611 7.22317 7.524 6.81592C8.18925 6.24555 8.625 5.31555 8.625 4.26367C8.625 2.53192 7.4475 1.12305 6 1.12305C4.5525 1.12305 3.375 2.53192 3.375 4.26367C3.375 5.46555 3.94275 6.51105 4.77413 7.03867C4.63538 7.3578 4.36463 7.6458 4.06425 7.74855L1.69275 8.56005C0.953625 8.81355 0.375 9.53955 0.375 10.3207C0.375 11.1475 1.04775 11.7367 1.875 11.7367H10.125C10.9523 11.7367 11.625 11.1475 11.625 10.3207C11.625 9.54367 11.055 8.80642 10.3271 8.53455ZM4.125 4.26367C4.125 2.94555 4.96613 1.87305 6 1.87305C7.03387 1.87305 7.875 2.94555 7.875 4.26367C7.875 5.5818 7.03387 6.6543 6 6.6543C4.96613 6.6543 4.125 5.5818 4.125 4.26367ZM5.45963 7.3368C5.634 7.38067 5.81475 7.4043 6 7.4043C6.3045 7.4043 6.59588 7.33867 6.86812 7.2243C7.0575 7.75642 7.46925 8.23042 7.971 8.4483C7.41563 8.7333 6.73687 8.90467 6.00037 8.90467C5.31825 8.90467 4.68488 8.7588 4.15387 8.5113L4.30763 8.4588C4.81463 8.2848 5.23987 7.84642 5.45963 7.3368ZM10.125 10.9867H1.875C1.46137 10.9867 1.125 10.7343 1.125 10.3207C1.125 9.8643 1.50375 9.37605 1.93575 9.22792L3.22388 8.80792C3.95738 9.31867 4.92975 9.6438 6 9.6438C7.10362 9.6438 8.106 9.31642 8.84662 8.77717L10.065 9.23467C10.4966 9.39592 10.875 9.85867 10.875 10.3192C10.875 10.7328 10.5386 10.9867 10.125 10.9867Z"/>
</mask>
<path d="M10.3271 8.53455L8.31 7.78155C7.94025 7.64355 7.611 7.22317 7.524 6.81592C8.18925 6.24555 8.625 5.31555 8.625 4.26367C8.625 2.53192 7.4475 1.12305 6 1.12305C4.5525 1.12305 3.375 2.53192 3.375 4.26367C3.375 5.46555 3.94275 6.51105 4.77413 7.03867C4.63538 7.3578 4.36463 7.6458 4.06425 7.74855L1.69275 8.56005C0.953625 8.81355 0.375 9.53955 0.375 10.3207C0.375 11.1475 1.04775 11.7367 1.875 11.7367H10.125C10.9523 11.7367 11.625 11.1475 11.625 10.3207C11.625 9.54367 11.055 8.80642 10.3271 8.53455ZM4.125 4.26367C4.125 2.94555 4.96613 1.87305 6 1.87305C7.03387 1.87305 7.875 2.94555 7.875 4.26367C7.875 5.5818 7.03387 6.6543 6 6.6543C4.96613 6.6543 4.125 5.5818 4.125 4.26367ZM5.45963 7.3368C5.634 7.38067 5.81475 7.4043 6 7.4043C6.3045 7.4043 6.59588 7.33867 6.86812 7.2243C7.0575 7.75642 7.46925 8.23042 7.971 8.4483C7.41563 8.7333 6.73687 8.90467 6.00037 8.90467C5.31825 8.90467 4.68488 8.7588 4.15387 8.5113L4.30763 8.4588C4.81463 8.2848 5.23987 7.84642 5.45963 7.3368ZM10.125 10.9867H1.875C1.46137 10.9867 1.125 10.7343 1.125 10.3207C1.125 9.8643 1.50375 9.37605 1.93575 9.22792L3.22388 8.80792C3.95738 9.31867 4.92975 9.6438 6 9.6438C7.10362 9.6438 8.106 9.31642 8.84662 8.77717L10.065 9.23467C10.4966 9.39592 10.875 9.85867 10.875 10.3192C10.875 10.7328 10.5386 10.9867 10.125 10.9867Z" fill="#CCDDDA"/>
<path d="M10.3271 8.53455L10.8615 7.10384L10.8612 7.10374L10.3271 8.53455ZM8.31 7.78155L8.84412 6.35074L8.84403 6.35071L8.31 7.78155ZM7.524 6.81592L6.52992 5.65649L5.84082 6.24731L6.03045 7.13499L7.524 6.81592ZM4.77413 7.03867L6.17472 7.64763L6.69571 6.44934L5.59249 5.74919L4.77413 7.03867ZM4.06425 7.74855L3.56994 6.3035L3.56979 6.30356L4.06425 7.74855ZM1.69275 8.56005L1.19829 7.11506L1.19728 7.1154L1.69275 8.56005ZM5.45963 7.3368L5.83228 5.85571L4.57184 5.53857L4.0572 6.73207L5.45963 7.3368ZM6.86812 7.2243L8.30697 6.71223L7.7655 5.19075L6.27659 5.81626L6.86812 7.2243ZM7.971 8.4483L8.66828 9.80708L11.5404 8.33321L8.5793 7.04742L7.971 8.4483ZM4.15387 8.5113L3.66036 7.06598L0.0689562 8.29231L3.50867 9.89556L4.15387 8.5113ZM4.30763 8.4588L4.80114 9.90411L4.80339 9.90334L4.30763 8.4588ZM1.93575 9.22792L1.46231 7.77591L1.45133 7.77949L1.44039 7.78324L1.93575 9.22792ZM3.22388 8.80792L4.0966 7.55459L3.47295 7.12033L2.75044 7.35591L3.22388 8.80792ZM8.84662 8.77717L9.3835 7.3474L8.61301 7.05808L7.94767 7.54252L8.84662 8.77717ZM10.065 9.23467L9.52812 10.6644L9.53052 10.6653L10.065 9.23467ZM10.8612 7.10374L8.84412 6.35074L7.77588 9.21235L9.793 9.96535L10.8612 7.10374ZM8.84403 6.35071C8.91753 6.37814 8.96079 6.40848 8.97815 6.42191C8.98791 6.42946 8.99389 6.43508 8.99683 6.43799C8.99839 6.43954 8.99942 6.44064 9 6.44129C9.00058 6.44193 9.00084 6.44226 9.00084 6.44227C9.00085 6.44227 9.00071 6.4421 9.00048 6.44178C9.00025 6.44146 9.00003 6.44113 8.99984 6.44083C8.99936 6.44009 8.99961 6.44037 9.00051 6.44218C9.00137 6.44392 9.00991 6.46111 9.01755 6.49686L6.03045 7.13499C6.13031 7.60245 6.35259 8.02345 6.62109 8.35714C6.8857 8.68598 7.27186 9.02424 7.77597 9.21239L8.84403 6.35071ZM8.51808 7.97536C9.54753 7.09273 10.1522 5.72619 10.1522 4.26367H7.09775C7.09775 4.9049 6.83097 5.39837 6.52992 5.65649L8.51808 7.97536ZM10.1522 4.26367C10.1522 1.95644 8.53607 -0.404202 6 -0.404202V2.6503C6.35893 2.6503 7.09775 3.1074 7.09775 4.26367H10.1522ZM6 -0.404202C3.46393 -0.404202 1.84775 1.95644 1.84775 4.26367H4.90225C4.90225 3.1074 5.64107 2.6503 6 2.6503V-0.404202ZM1.84775 4.26367C1.84775 5.92359 2.63089 7.48734 3.95576 8.32816L5.59249 5.74919C5.25461 5.53476 4.90225 5.00751 4.90225 4.26367H1.84775ZM3.37353 6.42972C3.37896 6.41724 3.38224 6.41268 3.3905 6.40428C3.39638 6.39829 3.41065 6.38475 3.43637 6.36764C3.46184 6.3507 3.50584 6.32543 3.56994 6.3035L4.55856 9.19359C5.3625 8.91858 5.91067 8.25494 6.17472 7.64763L3.37353 6.42972ZM3.56979 6.30356L1.19829 7.11506L2.18721 10.005L4.55871 9.19354L3.56979 6.30356ZM1.19728 7.1154C-0.0832788 7.5546 -1.15225 8.81035 -1.15225 10.3207H1.90225C1.90225 10.3092 1.90828 10.251 1.9711 10.1686C2.03491 10.085 2.11932 10.0283 2.18822 10.0047L1.19728 7.1154ZM-1.15225 10.3207C-1.15225 12.1042 0.32204 13.2639 1.875 13.2639V10.2094C1.82397 10.2094 1.82479 10.1926 1.85055 10.2164C1.86338 10.2282 1.87828 10.2471 1.88936 10.2721C1.90092 10.2981 1.90225 10.3173 1.90225 10.3207H-1.15225ZM1.875 13.2639H10.125V10.2094H1.875V13.2639ZM10.125 13.2639C11.678 13.2639 13.1522 12.1042 13.1522 10.3207H10.0978C10.0978 10.3173 10.0991 10.2981 10.1106 10.2721C10.1217 10.2471 10.1366 10.2282 10.1495 10.2164C10.1752 10.1926 10.176 10.2094 10.125 10.2094V13.2639ZM13.1522 10.3207C13.1522 8.83226 12.114 7.57165 10.8615 7.10384L9.79273 9.96525C9.86285 9.99144 9.95249 10.0536 10.0215 10.1468C10.0899 10.2392 10.0978 10.3057 10.0978 10.3207H13.1522ZM5.65225 4.26367C5.65225 3.92068 5.76323 3.66104 5.87653 3.51658C5.98844 3.37389 6.04411 3.4003 6 3.4003V0.345798C3.79784 0.345798 2.59775 2.4685 2.59775 4.26367H5.65225ZM6 3.4003C5.95589 3.4003 6.01156 3.37389 6.12347 3.51658C6.23677 3.66104 6.34775 3.92068 6.34775 4.26367H9.40225C9.40225 2.4685 8.20216 0.345798 6 0.345798V3.4003ZM6.34775 4.26367C6.34775 4.60667 6.23677 4.86631 6.12347 5.01077C6.01156 5.15346 5.95589 5.12705 6 5.12705V8.18155C8.20216 8.18155 9.40225 6.05884 9.40225 4.26367H6.34775ZM6 5.12705C6.04411 5.12705 5.98844 5.15346 5.87653 5.01077C5.76323 4.86631 5.65225 4.60667 5.65225 4.26367H2.59775C2.59775 6.05884 3.79784 8.18155 6 8.18155V5.12705ZM5.08697 8.81788C5.37826 8.89118 5.68412 8.93155 6 8.93155V5.87705C5.94538 5.87705 5.88974 5.87017 5.83228 5.85571L5.08697 8.81788ZM6 8.93155C6.52768 8.93155 7.01953 8.81724 7.45966 8.63234L6.27659 5.81626C6.17222 5.8601 6.08132 5.87705 6 5.87705V8.93155ZM5.42928 7.73636C5.74279 8.6173 6.4271 9.44291 7.3627 9.84917L8.5793 7.04742C8.5114 7.01793 8.37221 6.89554 8.30697 6.71223L5.42928 7.73636ZM7.27372 7.08952C6.94225 7.25962 6.50369 7.37742 6.00037 7.37742V10.4319C6.97006 10.4319 7.889 10.207 8.66828 9.80708L7.27372 7.08952ZM6.00037 7.37742C5.53283 7.37742 5.1206 7.27689 4.79908 7.12703L3.50867 9.89556C4.24915 10.2407 5.10366 10.4319 6.00037 10.4319V7.37742ZM4.64739 9.95661L4.80114 9.90411L3.81411 7.01348L3.66036 7.06598L4.64739 9.95661ZM4.80339 9.90334C5.78409 9.56677 6.50196 8.77661 6.86205 7.94152L4.0572 6.73207C3.97779 6.91623 3.84516 7.00283 3.81186 7.01425L4.80339 9.90334ZM10.125 9.45942H1.875V12.5139H10.125V9.45942ZM1.875 9.45942C1.96867 9.45942 2.14806 9.48791 2.33086 9.64244C2.53792 9.81748 2.65225 10.0775 2.65225 10.3207H-0.402249C-0.402249 10.9775 -0.119732 11.5705 0.358918 11.9751C0.813318 12.3593 1.36771 12.5139 1.875 12.5139V9.45942ZM2.65225 10.3207C2.65225 10.4162 2.63296 10.4826 2.62027 10.5162C2.6074 10.5504 2.59485 10.5688 2.58878 10.5769C2.58258 10.5852 2.57314 10.5959 2.55554 10.6094C2.53876 10.6223 2.49916 10.6493 2.43111 10.6726L1.44039 7.78324C0.886047 7.97331 0.446089 8.34426 0.147967 8.7405C-0.148763 9.1349 -0.402249 9.68527 -0.402249 10.3207H2.65225ZM2.40919 10.6799L3.69731 10.2599L2.75044 7.35591L1.46231 7.77591L2.40919 10.6799ZM2.35115 10.0613C3.34731 10.7549 4.62579 11.171 6 11.171V8.11655C5.23371 8.11655 4.56744 7.88244 4.0966 7.55459L2.35115 10.0613ZM6 11.171C7.39634 11.171 8.72029 10.7583 9.74558 10.0118L7.94767 7.54252C7.49171 7.8745 6.81091 8.11655 6 8.11655V11.171ZM8.30975 10.2069L9.52812 10.6644L10.6019 7.8049L9.3835 7.3474L8.30975 10.2069ZM9.53052 10.6653C9.48487 10.6483 9.45918 10.6307 9.44822 10.6223C9.43679 10.6136 9.42849 10.6052 9.42064 10.595C9.41299 10.585 9.39744 10.5625 9.3822 10.5225C9.36683 10.4822 9.34775 10.4131 9.34775 10.3192H12.4022C12.4022 9.6773 12.1455 9.12816 11.8431 8.73442C11.5391 8.33869 11.1109 7.99506 10.5995 7.804L9.53052 10.6653ZM9.34775 10.3192C9.34775 10.0765 9.46158 9.81772 9.66726 9.64328C9.84937 9.48883 10.0291 9.45942 10.125 9.45942V12.5139C10.6345 12.5139 11.1893 12.3576 11.643 11.9728C12.1202 11.568 12.4022 10.9755 12.4022 10.3192H9.34775Z" fill="#CCDDDA" mask="url(#path-1-inside-1_4575_1263)"/>
</svg>
