<svg width="12" height="13" viewBox="0 0 12 13" fill="none" xmlns="http://www.w3.org/2000/svg">
<path d="M11 8.85715V2.82215C11 2.22215 10.51 1.77715 9.915 1.82715H9.885C8.835 1.91715 7.24 2.45216 6.35 3.01216L6.265 3.06715C6.12 3.15715 5.88 3.15715 5.735 3.06715L5.61 2.99216C4.72 2.43716 3.13 1.90715 2.08 1.82215C1.485 1.77215 1 2.22215 1 2.81715V8.85715C1 9.33715 1.39 9.78715 1.87 9.84715L2.015 9.86716C3.1 10.0122 4.775 10.5622 5.735 11.0872L5.755 11.0972C5.89 11.1722 6.105 11.1722 6.235 11.0972C7.195 10.5672 8.875 10.0122 9.965 9.86716L10.13 9.84715C10.61 9.78715 11 9.33715 11 8.85715Z" stroke="#CCDDDA" stroke-linecap="round" stroke-linejoin="round"/>
<path d="M6 3.23047V10.7305" stroke="#CCDDDA" stroke-linecap="round" stroke-linejoin="round"/>
<path d="M3.875 4.73047H2.75" stroke="#CCDDDA" stroke-linecap="round" stroke-linejoin="round"/>
<path d="M4.25 6.23047H2.75" stroke="#CCDDDA" stroke-linecap="round"/>
</svg>
