<svg width="12" height="12" viewBox="0 0 12 12" fill="none" xmlns="http://www.w3.org/2000/svg">
<path d="M8.58984 2.625C7.73484 2.625 6.71484 2.95 6.71484 4.5V7.5C6.71484 9.05 7.73484 9.375 8.58984 9.375C9.44484 9.375 10.4648 9.05 10.4648 7.5V4.5C10.4648 2.95 9.44484 2.625 8.58984 2.625Z" fill="#479A8A"/>
<path d="M3.41016 2.625C2.55516 2.625 1.53516 2.95 1.53516 4.5V7.5C1.53516 9.05 2.55516 9.375 3.41016 9.375C4.26516 9.375 5.28516 9.05 5.28516 7.5V4.5C5.28516 2.95 4.26516 2.625 3.41016 2.625Z" fill="#479A8A"/>
<path d="M6.71516 5.625H5.28516V6.375H6.71516V5.625Z" fill="#479A8A"/>
<path d="M11.25 7.625C11.045 7.625 10.875 7.455 10.875 7.25V4.75C10.875 4.545 11.045 4.375 11.25 4.375C11.455 4.375 11.625 4.545 11.625 4.75V7.25C11.625 7.455 11.455 7.625 11.25 7.625Z" fill="#479A8A"/>
<path d="M0.75 7.625C0.545 7.625 0.375 7.455 0.375 7.25V4.75C0.375 4.545 0.545 4.375 0.75 4.375C0.955 4.375 1.125 4.545 1.125 4.75V7.25C1.125 7.455 0.955 7.625 0.75 7.625Z" fill="#479A8A"/>
</svg>
